<svg xmlns="http://www.w3.org/2000/svg" xmlns:xlink="http://www.w3.org/1999/xlink" xmlns:inkscape="http://www.inkscape.org/namespaces/inkscape" version="1.1" width="841.89" height="595.276" viewBox="0 0 841.89 595.276">
<defs>
<clipPath id="clip_0">
<path transform="matrix(1,0,0,-1,0,595.276)" d="M0 595.276H841.89V0H0Z"/>
</clipPath>
</defs>
<g inkscape:groupmode="layer" inkscape:label="Layer 1">
<path transform="matrix(1,0,0,-1,92.6769,210.01682)" d="M0 0H13.48L40.263-95.975 77.864 0H80.702L117.949-95.975 145.175 0H158.565L120.875-133.143H118.303L79.372-32.41 39.553-133.143H37.158Z" fill="#ed1c24"/>
<path transform="matrix(1,0,0,-1,92.6769,210.01682)" stroke-width="4" stroke-linecap="butt" stroke-miterlimit="10" stroke-linejoin="miter" fill="none" stroke="#ed1c24" d="M0 0H13.48L40.263-95.975 77.864 0H80.702L117.949-95.975 145.175 0H158.565L120.875-133.143H118.303L79.372-32.41 39.553-133.143H37.158L0 0Z"/>
<g clip-path="url(#clip_0)">
<path transform="matrix(1,0,0,-1,281.1326,261.1109)" d="M0 0C-4.518 0-8.809-1.193-12.872-3.577-16.935-5.962-20.096-9.183-22.355-13.24-24.614-17.298-25.743-21.809-25.743-26.773-25.743-34.135-23.229-40.103-18.202-44.677-13.175-49.25-7.107-51.537 0-51.537 4.738-51.537 9.132-50.365 13.181-48.023 17.231-45.68 20.385-42.495 22.644-38.465 24.902-34.435 26.032-30.44 26.032-26.48 26.032-21.572 24.902-17.124 22.644-13.136 20.385-9.148 17.203-5.962 13.098-3.577 8.993-1.193 4.628 0 0 0M-.248 6.107C9.008 6.107 16.755 2.97 22.995-3.305 29.234-9.58 32.354-17.305 32.354-26.48 32.354-35.543 29.241-42.989 23.016-48.818 16.79-54.646 9.2-57.561 .248-57.561-8.843-57.561-16.515-54.416-22.768-48.128-29.021-41.839-32.147-34.72-32.147-26.773-32.147-20.832-30.729-15.311-27.892-10.207-25.054-5.104-21.171-1.109-16.239 1.778-11.308 4.664-5.978 6.107-.248 6.107"/>
<path transform="matrix(1,0,0,-1,332.1216,262.15663)" d="M0 0V-21.083L10.537-21.167C14.613-21.167 17.637-20.777 19.607-19.996 21.576-19.216 23.105-17.96 24.193-16.231 25.281-14.502 25.826-12.564 25.826-10.416 25.826-8.353 25.268-6.47 24.152-4.769 23.037-3.069 21.583-1.848 19.793-1.109 18.002-.37 15 0 10.785 0ZM-6.115 6.065H6.074C12.878 6.065 17.492 5.786 19.917 5.229 23.553 4.392 26.514 2.586 28.8-.188 31.087-2.964 32.23-6.373 32.23-10.416 32.23-13.819 31.445-16.789 29.875-19.327 28.305-21.864 26.052-23.796 23.119-25.12 20.185-26.445 17.644-27.107 15.496-27.107L33.057-55.971H25.536L7.975-27.107H0V-55.971H-6.115Z"/>
<path transform="matrix(1,0,0,-1,376.5001,256.2589)" d="M0 0H6.24V-23.927L33.181 0H42.436L19.751-21.166 44.708-62.036H36.651L13.759-25.935 6.24-32.628V-62.036H0Z"/>
<path transform="matrix(1,0,0,-1,450.0172,256.0916)" d="M0 0H33.758V-6.107H6.115V-25.517H22.52V-31.625H6.115V-62.036H0Z"/>
<path transform="matrix(1,0,0,-1,524.7657,261.1109)" d="M0 0C-4.518 0-8.807-1.193-12.87-3.577-16.934-5.962-20.096-9.183-22.354-13.24-24.612-17.298-25.742-21.809-25.742-26.773-25.742-34.135-23.229-40.103-18.201-44.677-13.174-49.25-7.107-51.537 0-51.537 4.738-51.537 9.132-50.365 13.181-48.023 17.231-45.68 20.385-42.495 22.644-38.465 24.903-34.435 26.032-30.44 26.032-26.48 26.032-21.572 24.903-17.124 22.644-13.136 20.385-9.148 17.203-5.962 13.1-3.577 8.995-1.193 4.628 0 0 0M-.248 6.107C9.008 6.107 16.756 2.97 22.996-3.305 29.234-9.58 32.355-17.305 32.355-26.48 32.355-35.543 29.242-42.989 23.016-48.818 16.791-54.646 9.201-57.561 .248-57.561-8.842-57.561-16.514-54.416-22.768-48.128-29.021-41.839-32.147-34.72-32.147-26.773-32.147-20.832-30.728-15.311-27.89-10.207-25.054-5.104-21.169-1.109-16.239 1.778-11.308 4.664-5.977 6.107-.248 6.107"/>
<path transform="matrix(1,0,0,-1,575.7559,262.15663)" d="M0 0V-21.083L10.537-21.167C14.613-21.167 17.637-20.777 19.606-19.996 21.576-19.216 23.105-17.96 24.193-16.231 25.281-14.502 25.825-12.564 25.825-10.416 25.825-8.353 25.268-6.47 24.152-4.769 23.037-3.069 21.584-1.848 19.792-1.109 18.002-.37 14.999 0 10.785 0ZM-6.116 6.065H6.074C12.878 6.065 17.492 5.786 19.916 5.229 23.552 4.392 26.514 2.586 28.8-.188 31.087-2.964 32.23-6.373 32.23-10.416 32.23-13.819 31.445-16.789 29.875-19.327 28.305-21.864 26.053-23.796 23.118-25.12 20.185-26.445 17.644-27.107 15.495-27.107L33.057-55.971H25.536L7.974-27.107H0V-55.971H-6.116Z"/>
<path transform="matrix(1,0,0,-1,678.1072,267.9713)" d="M0 0-4.876-3.682C-7.521-.167-10.709 2.489-14.441 4.287-18.174 6.086-22.272 6.986-26.735 6.986-31.638 6.986-36.17 5.8-40.329 3.43-44.489 1.059-47.718-2.127-50.018-6.128-52.319-10.13-53.469-14.641-53.469-19.661-53.469-27.219-50.907-33.305-45.783-37.92-40.659-42.536-34.2-44.843-26.404-44.843-17.81-44.843-10.634-41.441-4.876-34.637L0-38.36C-3.057-42.292-6.873-45.332-11.446-47.479-16.019-49.627-21.115-50.7-26.735-50.7-37.478-50.7-45.948-47.089-52.147-39.866-57.326-33.758-59.916-26.842-59.916-19.117-59.916-10.054-56.768-2.413-50.473 3.806-44.179 10.025-36.307 13.135-26.859 13.135-21.129 13.135-15.957 11.984-11.343 9.684-6.728 7.383-2.948 4.155 0 0"/>
<path transform="matrix(1,0,0,-1,690.3378,256.0916)" d="M0 0H35.122V-6.107H6.116V-25.517H23.8V-31.541H6.116V-55.887H34.874V-62.036H0Z"/>
<path transform="matrix(1,0,0,-1,593.3466,225.67041)" d="M0 0H9.617C11.861 0 13.304 .321 13.945 .962 14.426 1.603 14.747 3.206 14.747 5.61 14.747 7.053 14.586 8.335 14.105 9.136 13.624 9.938 12.342 10.419 10.098 10.419H0ZM-12.503-18.914V19.235H12.182C17.792 19.235 21.799 18.273 24.043 16.67 26.448 14.907 27.57 12.022 27.57 7.694 27.57 3.366 26.928 .321 25.806-.962 24.684-2.404 21.959-3.526 17.792-4.328 24.043-4.809 27.249-7.053 27.249-11.38V-18.914H14.747V-13.464C14.747-10.419 12.983-8.816 9.297-8.816H0V-18.914Z"/>
<path transform="matrix(1,0,0,-1,642.7153,230.58609)" d="M0 0H9.43L4.874 13.627H4.62ZM14.177-13.96 12.342-8.566H-2.911L-4.747-13.96H-19.05L-3.164 24.306H13.101L28.987-13.96Z"/>
<path transform="matrix(1,0,0,-1,706.6848,206.3118)" d="M0 0-6.255-22.083H-6.498L-12.813 0H-31.76V-38.27H-19.433V-24.475-15.239-15.233L-12.51-38.27H-2.004L4.98-14.797V-24.475-38.27H18.279V0Z"/>
<path transform="matrix(1,0,0,-1,541.3568,218.9318)" d="M0 0V-.18L.008-.172Z" fill="#231f20"/>
<path transform="matrix(1,0,0,-1,541.3646,219.10379)" d="M0 0-.008-.008-.013-.013-.008-.021 .002-.034Z" fill="#231f20"/>
<path transform="matrix(1,0,0,-1,553.7615,206.2652)" d="M0 0H-12.405V-11.421Z" fill="#ec1c24"/>
<path transform="matrix(1,0,0,-1,554.7075,235.3855)" d="M0 0V5.846H19.332V14.643H0V19.933H22.594V29.121H.218L-13.351 16.615V-9.187H23.017V0Z"/>
</g>
<text xml:space="preserve" transform="matrix(1 0 -0 1 0 595.276)" font-size="32.9859" font-family="Uni-Sans"><tspan y="-249.7334" x="237.25 262.35227 281.81394 310.67658 329.37959 349.33607 360.32038 382.61885 401.4208 417.88078 437.2105 456.67219 469.07487 486.59037 505.39234 521.8523 532.8366 555.66287 574.7287 593.79458 604.548 614.41079 632.2561 651.32199 663.497 673.3598 692.3597 711.9896">Human Resources Applications</tspan></text>
</g>
</svg>
